<svg width="26" height="21" viewBox="0 0 26 21" xmlns="http://www.w3.org/2000/svg">
    <path d="M8.173 20.595c9.819 0 15.184-7.699 15.184-14.371 0-.214-.009-.437-.018-.65A10.5 10.5 0 0 0 26 2.964c-.953.403-1.985.668-3.06.788 1.101-.625 1.942-1.609 2.34-2.79-1.03.583-2.166 1.002-3.388 1.224A5.485 5.485 0 0 0 18.001.595c-2.947 0-5.33 2.258-5.33 5.047 0 .394.043.778.13 1.155-4.429-.214-8.364-2.224-10.99-5.278a4.81 4.81 0 0 0-.728 2.54c0 1.746.945 3.294 2.375 4.2a5.497 5.497 0 0 1-2.41-.632c-.008.017-.008.042-.008.068 0 2.438 1.846 4.483 4.281 4.944-.442.12-.918.18-1.404.18-.346 0-.676-.034-1.005-.094.685 2.01 2.652 3.465 4.983 3.507a11.096 11.096 0 0 1-6.621 2.165c-.433 0-.858-.026-1.274-.069a15.75 15.75 0 0 0 8.173 2.267" fill="#FFF" fill-rule="nonzero" opacity=".301"/>
</svg>
