<svg width="21" height="21" viewBox="0 0 21 21" xmlns="http://www.w3.org/2000/svg">
    <g fill="#FFF" fill-rule="nonzero" opacity=".301">
        <path d="M14.745.595h-8.49C2.805.595 0 3.271 0 6.555v8.08c0 3.284 2.805 5.96 6.255 5.96h8.49c3.45 0 6.255-2.676 6.255-5.96v-8.08c0-3.284-2.805-5.96-6.255-5.96zm4.14 14.04c0 2.177-1.853 3.944-4.14 3.944h-8.49c-2.288 0-4.14-1.767-4.14-3.944v-8.08c0-2.184 1.852-3.951 4.14-3.951h8.49c2.287 0 4.14 1.767 4.14 3.951v8.08z"/>
        <path d="M10.5 5.419c-2.992 0-5.43 2.324-5.43 5.176 0 2.852 2.438 5.169 5.43 5.169 2.992 0 5.43-2.317 5.43-5.169 0-2.852-2.438-5.176-5.43-5.176zm0 8.336c-1.83 0-3.322-1.415-3.322-3.16s1.492-3.16 3.322-3.16 3.315 1.415 3.315 3.16-1.485 3.16-3.315 3.16zM15.945 6.702c.712 0 1.297-.557 1.297-1.239 0-.69-.585-1.239-1.297-1.239-.72 0-1.305.55-1.305 1.239 0 .682.585 1.239 1.305 1.239z"/>
    </g>
</svg>
